<svg id="Vrstva_1" data-name="Vrstva 1" xmlns="http://www.w3.org/2000/svg" viewBox="0 0 888.29 306.43"><defs><style>.cls-1,.cls-3{fill:none;}.cls-2{fill:#fff;}.cls-2,.cls-3{stroke:#000;stroke-miterlimit:10;}</style></defs><circle class="cls-1" cx="800.77" cy="218.91" r="87"/><path d="M782.79,169.08a86.5,86.5,0,1,1-66.63,102.59h0a86.46,86.46,0,0,1,66.63-102.59m-.21-1a87.5,87.5,0,1,0,103.78,67.39h0A87.53,87.53,0,0,0,782.58,168.1Z" transform="translate(0 -34.78)"/><path class="cls-1" d="M406.24,80.94a87,87,0,0,0,11.15,171.84C432.14,197.34,444.82,141.36,455.86,85A86.64,86.64,0,0,0,406.24,80.94Z" transform="translate(0 -34.78)"/><path class="cls-1" d="M455.86,85c-11,56.41-23.72,112.39-38.47,167.83A87,87,0,0,0,455.86,85Z" transform="translate(0 -34.78)"/><path d="M255.11,181.58A86.5,86.5,0,0,1,298.75,35.71c-.12-.31-.24-.62-.37-.93a87.5,87.5,0,1,0,59.48,162.64c-.1-.33-.21-.65-.32-1A86.49,86.49,0,0,1,255.11,181.58Z" transform="translate(0 -34.78)"/><path d="M459.38,74.6c-.07.33-.13.66-.2,1a86.51,86.51,0,0,1-38.24,166.83c-.08.33-.17.66-.26,1a87.5,87.5,0,0,0,38.7-168.8Z" transform="translate(0 -34.78)"/><circle class="cls-1" cx="87.5" cy="216.72" r="87"/><path d="M87.5,165A86.5,86.5,0,1,1,1,251.5H1A86.46,86.46,0,0,1,87.5,165m0-1A87.5,87.5,0,1,0,175,251.5h0A87.53,87.53,0,0,0,87.5,164Z" transform="translate(0 -34.78)"/><path class="cls-2" d="M217.5-189.5" transform="translate(0 -34.78)"/><path class="cls-2" d="M87.5,251.5" transform="translate(0 -34.78)"/><line class="cls-3" x1="246.03" y1="136.13" x2="165.1" y2="180.32"/><line class="cls-3" x1="508.5" y1="150.69" x2="717.18" y2="199.36"/></svg>