<?xml version="1.0" encoding="utf-8"?>
<!-- Generator: Adobe Illustrator 25.2.0, SVG Export Plug-In . SVG Version: 6.00 Build 0)  -->
<svg version="1.1" id="Vrstva_1" xmlns="http://www.w3.org/2000/svg" xmlns:xlink="http://www.w3.org/1999/xlink" x="0px" y="0px"
	 viewBox="0 0 1122.3 1148.8" style="enable-background:new 0 0 1122.3 1148.8;" xml:space="preserve">
<style type="text/css">
	.st0{fill:none;}
</style>
<path class="st0" d="M324.5,616c-73.1,0-141.8-29.3-193.7-82.4C78.7,480.1,50,408.8,50,333s28.7-147.1,80.8-200.6
	C182.7,79.3,251.4,50,324.5,50s141.8,29.3,193.7,82.4C570.3,185.9,599,257.2,599,333s-28.7,147.1-80.8,200.6
	C466.3,586.7,397.6,616,324.5,616z"/>
<path d="M324.5,100c59.5,0,115.5,23.9,157.8,67.3c20.8,21.4,37.3,46.6,48.7,74.2c23.9,58.7,23.9,124.3,0,183
	c-11.3,27.6-27.9,52.8-48.7,74.2C440,542.1,384,566,324.5,566S209,542.1,166.7,498.7c-20.8-21.4-37.3-46.6-48.7-74.2
	c-23.9-58.7-23.9-124.3,0-183c11.3-27.6,27.9-52.8,48.7-74.2C209,123.9,265,100,324.5,100 M324.5,0C145.3,0,0,149.1,0,333
	s145.3,333,324.5,333S649,516.9,649,333S503.7,0,324.5,0z"/>
<path d="M1057.3,1148.3c-17.1,0-33.5-6.8-45.6-18.9L504.2,621.9c-25.2-25.2-25.2-66,0-91.2c25.2-25.2,66-25.2,91.2,0l0,0
	l507.5,507.5c25.2,25.2,25.2,66,0,91.2C1090.8,1141.5,1074.4,1148.3,1057.3,1148.3z"/>
<path d="M549.8,512.3c17,0,33.3,6.7,45.2,18.7l507.5,507.5c25.4,24.6,25.9,65.1,1.3,90.5c-24.6,25.4-65.1,25.9-90.5,1.3
	c-0.4-0.4-0.9-0.9-1.3-1.3L504.5,621.5c-25-25-25-65.5,0-90.5C516.5,519,532.8,512.3,549.8,512.3 M549.8,511.3
	c-35.9,0-65,29-65.1,64.9c0,17.3,6.8,33.9,19.1,46.1l507.5,507.5c25.6,25.2,66.8,24.8,91.9-0.8c24.8-25.3,24.8-65.8,0-91.1
	L595.7,530.3C583.5,518.1,567,511.3,549.8,511.3L549.8,511.3z"/>
</svg>
