<svg id="Vrstva_1" data-name="Vrstva 1" xmlns="http://www.w3.org/2000/svg" viewBox="0 0 2048 3112"><defs><style>.cls-1{fill:#e4b806;}.cls-2,.cls-3{fill:#e4c906;}.cls-2{opacity:0.5;}</style></defs><rect class="cls-1" x="0.5" y="0.5" width="2047" height="3111"/><path d="M4095,1V3111H2049V1H4095m1-1H2048V3112H4096V0Z" transform="translate(-2048)"/><path class="cls-2" d="M2048,1566h0c273.53,195.32,477.83,486.18,579.29,824.71h0c63.64,212.35,183.9,399.28,345.47,537L3189,3112H2048Z" transform="translate(-2048)"/><path class="cls-3" d="M2048,1744h0c230.38,172.84,402.45,430.2,487.9,729.76h0c53.61,187.9,154.89,353.31,291,475.16L3009,3112H2048Z" transform="translate(-2048)"/><path class="cls-3" d="M2048,813.92l112-7.41a352.62,352.62,0,0,0,327.24-313.35h0c14.31-130.23,137.88-219.67,266.06-192.58h0c177.92,37.59,340.38-110.17,319.77-290.84L3072,0H2048Z" transform="translate(-2048)"/><path class="cls-2" d="M2048,936l119.91-8.52c182.61-13,330.24-164.87,350.22-360.35h0c15.32-149.76,147.56-252.62,284.75-221.47h0C2993.29,388.9,3167.16,219,3145.1,11.2L3143.92,0H2048Z" transform="translate(-2048)"/><path class="cls-3" d="M3450.14,0l46.1,63.5a433.82,433.82,0,0,1,66.28,373.18h0c-39.27,138.47,56.79,278.6,200.11,291.91h0A297.48,297.48,0,0,1,4029,978.55l67,426V0Z" transform="translate(-2048)"/><path class="cls-2" d="M3338.14,0l54.09,68.32c91.7,115.81,120.37,263.79,77.78,401.47h0c-46.08,149,66.64,299.73,234.81,314.05h0c159,13.54,287.7,124.28,312.52,268.9L4096,1511V0Z" transform="translate(-2048)"/><path class="cls-3" d="M3450,3112l98.64-131.52c65.69-87.58,117-188.3,151.39-297.2l19-60.07c60.62-191.94,203.59-333.29,377-372.71h0V3112Z" transform="translate(-2048)"/><path class="cls-2" d="M3291,3112l122.92-153.5c81.86-102.23,145.79-219.78,188.65-346.88l23.64-70.11c75.54-224,253.7-389,469.79-435h0V3112Z" transform="translate(-2048)"/></svg>