<?xml version="1.0" encoding="utf-8"?>
<!-- Generator: Adobe Illustrator 25.2.0, SVG Export Plug-In . SVG Version: 6.00 Build 0)  -->
<svg version="1.1" id="Vrstva_1" xmlns="http://www.w3.org/2000/svg" xmlns:xlink="http://www.w3.org/1999/xlink" x="0px" y="0px"
	 viewBox="0 0 875 339" style="enable-background:new 0 0 875 339;" xml:space="preserve">
<style type="text/css">
	.st0{fill:none;}
	.st1{fill:#FFFFFF;stroke:#000000;stroke-miterlimit:10;}
	.st2{fill:none;stroke:#000000;stroke-miterlimit:10;}
</style>
<circle class="st0" cx="787.5" cy="251.5" r="87"/>
<path d="M787.5,165c47.8,0,86.5,38.7,86.5,86.5S835.3,338,787.5,338S701,299.3,701,251.5l0,0C701,203.7,739.7,165,787.5,165
	 M787.5,164c-48.3,0-87.5,39.2-87.5,87.5s39.2,87.5,87.5,87.5s87.5-39.2,87.5-87.5l0,0C875,203.2,835.8,164,787.5,164z"/>
<circle class="st0" cx="437.5" cy="87.5" r="87"/>
<path d="M437.5,1C485.3,1,524,39.7,524,87.5S485.3,174,437.5,174S351,135.3,351,87.5l0,0C351,39.7,389.7,1,437.5,1 M437.5,0
	C389.2,0,350,39.2,350,87.5s39.2,87.5,87.5,87.5S525,135.8,525,87.5S485.8,0,437.5,0z"/>
<circle class="st0" cx="87.5" cy="251.5" r="87"/>
<path d="M87.5,165c47.8,0,86.5,38.7,86.5,86.5S135.3,338,87.5,338S1,299.3,1,251.5l0,0C1,203.7,39.7,165,87.5,165 M87.5,164
	C39.2,164,0,203.2,0,251.5S39.2,339,87.5,339s87.5-39.2,87.5-87.5l0,0C175,203.2,135.8,164,87.5,164z"/>
<path class="st1" d="M217.5-189.5"/>
<path class="st1" d="M87.5,251.5"/>
<line class="st2" x1="359.2" y1="124.2" x2="165.1" y2="215.1"/>
<line class="st2" x1="515.8" y1="124" x2="709.8" y2="215"/>
</svg>
